<?xml version="1.0" encoding="UTF-8" standalone="no"?>
<!DOCTYPE svg PUBLIC "-//W3C//DTD SVG 1.1//EN"
 "http://www.w3.org/Graphics/SVG/1.1/DTD/svg11.dtd">
<!-- Generated by graphviz version 12.2.1 (20241206.2353)
 -->
<!-- Pages: 1 -->
<svg width="897pt" height="218pt"
 viewBox="0.00 0.00 896.75 217.50" xmlns="http://www.w3.org/2000/svg" xmlns:xlink="http://www.w3.org/1999/xlink">
<g id="graph0" class="graph" transform="scale(1 1) rotate(0) translate(4 213.5)">
<polygon fill="white" stroke="none" points="-4,4 -4,-213.5 892.75,-213.5 892.75,4 -4,4"/>
<!-- input -->
<g id="node1" class="node">
<title>input</title>
<polygon fill="palegreen" stroke="black" points="94,-133.5 0,-133.5 0,-76 94,-76 94,-133.5"/>
<text text-anchor="middle" x="47" y="-116.2" font-family="Times New Roman,serif" font-size="14.00">Kernel Config</text>
<text text-anchor="middle" x="47" y="-99.7" font-family="Times New Roman,serif" font-size="14.00">+</text>
<text text-anchor="middle" x="47" y="-83.2" font-family="Times New Roman,serif" font-size="14.00">PoC</text>
</g>
<!-- fuzz -->
<g id="node2" class="node">
<title>fuzz</title>
<polygon fill="#ffec8b" stroke="black" points="184,-122.75 130,-122.75 130,-86.75 184,-86.75 184,-122.75"/>
<text text-anchor="middle" x="157" y="-99.7" font-family="Times New Roman,serif" font-size="14.00">Fuzz</text>
</g>
<!-- input&#45;&gt;fuzz -->
<g id="edge2" class="edge">
<title>input&#45;&gt;fuzz</title>
<path fill="none" stroke="black" d="M94.43,-104.75C102.31,-104.75 110.41,-104.75 118.03,-104.75"/>
<polygon fill="black" stroke="black" points="118.02,-108.25 128.02,-104.75 118.02,-101.25 118.02,-108.25"/>
</g>
<!-- poc1 -->
<g id="node3" class="node">
<title>poc1</title>
<polygon fill="none" stroke="black" stroke-dasharray="5,2" points="278,-178.75 221.5,-178.75 221.5,-142.75 278,-142.75 278,-178.75"/>
<text text-anchor="middle" x="249.75" y="-155.7" font-family="Times New Roman,serif" font-size="14.00">PoC #1</text>
</g>
<!-- fuzz&#45;&gt;poc1 -->
<g id="edge3" class="edge">
<title>fuzz&#45;&gt;poc1</title>
<path fill="none" stroke="black" d="M184.25,-120.95C192.78,-126.21 202.42,-132.16 211.6,-137.82"/>
<polygon fill="black" stroke="black" points="209.66,-140.74 220.01,-143.01 213.34,-134.78 209.66,-140.74"/>
</g>
<!-- poc2 -->
<g id="node4" class="node">
<title>poc2</title>
<polygon fill="none" stroke="black" stroke-dasharray="5,2" points="278,-122.75 221.5,-122.75 221.5,-86.75 278,-86.75 278,-122.75"/>
<text text-anchor="middle" x="249.75" y="-99.7" font-family="Times New Roman,serif" font-size="14.00">PoC #2</text>
</g>
<!-- fuzz&#45;&gt;poc2 -->
<g id="edge4" class="edge">
<title>fuzz&#45;&gt;poc2</title>
<path fill="none" stroke="black" d="M184.25,-104.75C192.24,-104.75 201.2,-104.75 209.84,-104.75"/>
<polygon fill="black" stroke="black" points="209.78,-108.25 219.78,-104.75 209.78,-101.25 209.78,-108.25"/>
</g>
<!-- pocn -->
<g id="node5" class="node">
<title>pocn</title>
<polygon fill="none" stroke="black" stroke-dasharray="5,2" points="279.5,-66.75 220,-66.75 220,-30.75 279.5,-30.75 279.5,-66.75"/>
<text text-anchor="middle" x="249.75" y="-43.7" font-family="Times New Roman,serif" font-size="14.00">PoC #N</text>
</g>
<!-- fuzz&#45;&gt;pocn -->
<g id="edge5" class="edge">
<title>fuzz&#45;&gt;pocn</title>
<path fill="none" stroke="black" d="M184.25,-88.55C192.31,-83.58 201.36,-77.99 210.07,-72.62"/>
<polygon fill="black" stroke="black" points="211.74,-75.7 218.41,-67.47 208.06,-69.75 211.74,-75.7"/>
</g>
<!-- se1 -->
<g id="node6" class="node">
<title>se1</title>
<polygon fill="#ffec8b" stroke="black" points="442.5,-184.25 315.5,-184.25 315.5,-143.25 442.5,-143.25 442.5,-184.25"/>
<text text-anchor="middle" x="379" y="-166.95" font-family="Times New Roman,serif" font-size="14.00">Symbolic Execution</text>
<text text-anchor="middle" x="379" y="-150.45" font-family="Times New Roman,serif" font-size="14.00">for PoC #1</text>
</g>
<!-- poc1&#45;&gt;se1 -->
<g id="edge6" class="edge">
<title>poc1&#45;&gt;se1</title>
<path fill="none" stroke="black" d="M278.36,-161.4C286.02,-161.58 294.72,-161.79 303.7,-162"/>
<polygon fill="black" stroke="black" points="303.6,-165.5 313.68,-162.23 303.76,-158.5 303.6,-165.5"/>
</g>
<!-- se2 -->
<g id="node7" class="node">
<title>se2</title>
<polygon fill="#ffec8b" stroke="black" points="442.5,-125.25 315.5,-125.25 315.5,-84.25 442.5,-84.25 442.5,-125.25"/>
<text text-anchor="middle" x="379" y="-107.95" font-family="Times New Roman,serif" font-size="14.00">Symbolic Execution</text>
<text text-anchor="middle" x="379" y="-91.45" font-family="Times New Roman,serif" font-size="14.00">for PoC #2</text>
</g>
<!-- poc2&#45;&gt;se2 -->
<g id="edge7" class="edge">
<title>poc2&#45;&gt;se2</title>
<path fill="none" stroke="black" d="M278.36,-104.75C286.02,-104.75 294.72,-104.75 303.7,-104.75"/>
<polygon fill="black" stroke="black" points="303.68,-108.25 313.68,-104.75 303.68,-101.25 303.68,-108.25"/>
</g>
<!-- sen -->
<g id="node8" class="node">
<title>sen</title>
<polygon fill="#ffec8b" stroke="black" points="442.5,-66.25 315.5,-66.25 315.5,-25.25 442.5,-25.25 442.5,-66.25"/>
<text text-anchor="middle" x="379" y="-48.95" font-family="Times New Roman,serif" font-size="14.00">Symbolic Execution</text>
<text text-anchor="middle" x="379" y="-32.45" font-family="Times New Roman,serif" font-size="14.00">for PoC #N</text>
</g>
<!-- pocn&#45;&gt;sen -->
<g id="edge8" class="edge">
<title>pocn&#45;&gt;sen</title>
<path fill="none" stroke="black" d="M279.94,-48.06C287.29,-47.89 295.51,-47.69 303.99,-47.49"/>
<polygon fill="black" stroke="black" points="303.8,-51 313.71,-47.27 303.63,-44 303.8,-51"/>
</g>
<!-- paths1 -->
<g id="node9" class="node">
<title>paths1</title>
<polygon fill="none" stroke="black" stroke-dasharray="5,2" points="589,-178.75 480,-178.75 480,-142.75 589,-142.75 589,-178.75"/>
<text text-anchor="middle" x="534.5" y="-155.7" font-family="Times New Roman,serif" font-size="14.00">Paths for PoC #1</text>
</g>
<!-- se1&#45;&gt;paths1 -->
<g id="edge9" class="edge">
<title>se1&#45;&gt;paths1</title>
<path fill="none" stroke="black" d="M442.88,-162.52C451.3,-162.36 459.96,-162.19 468.42,-162.02"/>
<polygon fill="black" stroke="black" points="468.35,-165.52 478.28,-161.83 468.22,-158.53 468.35,-165.52"/>
</g>
<!-- paths2 -->
<g id="node10" class="node">
<title>paths2</title>
<polygon fill="none" stroke="black" stroke-dasharray="5,2" points="589,-122.75 480,-122.75 480,-86.75 589,-86.75 589,-122.75"/>
<text text-anchor="middle" x="534.5" y="-99.7" font-family="Times New Roman,serif" font-size="14.00">Paths for PoC #2</text>
</g>
<!-- se2&#45;&gt;paths2 -->
<g id="edge10" class="edge">
<title>se2&#45;&gt;paths2</title>
<path fill="none" stroke="black" d="M442.88,-104.75C451.3,-104.75 459.96,-104.75 468.42,-104.75"/>
<polygon fill="black" stroke="black" points="468.28,-108.25 478.28,-104.75 468.28,-101.25 468.28,-108.25"/>
</g>
<!-- pathsn -->
<g id="node11" class="node">
<title>pathsn</title>
<polygon fill="none" stroke="black" stroke-dasharray="5,2" points="590.5,-66.75 478.5,-66.75 478.5,-30.75 590.5,-30.75 590.5,-66.75"/>
<text text-anchor="middle" x="534.5" y="-43.7" font-family="Times New Roman,serif" font-size="14.00">Paths for PoC #N</text>
</g>
<!-- sen&#45;&gt;pathsn -->
<g id="edge11" class="edge">
<title>sen&#45;&gt;pathsn</title>
<path fill="none" stroke="black" d="M442.88,-46.98C450.78,-47.13 458.88,-47.29 466.83,-47.45"/>
<polygon fill="black" stroke="black" points="466.76,-50.95 476.83,-47.64 466.9,-43.95 466.76,-50.95"/>
</g>
<!-- path_analysis -->
<g id="node12" class="node">
<title>path_analysis</title>
<polygon fill="lightskyblue" stroke="black" points="724.25,-122.75 634,-122.75 634,-86.75 724.25,-86.75 724.25,-122.75"/>
<text text-anchor="middle" x="679.12" y="-99.7" font-family="Times New Roman,serif" font-size="14.00">Path Analysis</text>
</g>
<!-- paths1&#45;&gt;path_analysis -->
<g id="edge12" class="edge">
<title>paths1&#45;&gt;path_analysis</title>
<path fill="none" stroke="black" d="M582.6,-142.26C595.66,-137.13 609.95,-131.52 623.4,-126.24"/>
<polygon fill="black" stroke="black" points="624.54,-129.55 632.57,-122.64 621.98,-123.03 624.54,-129.55"/>
</g>
<!-- paths2&#45;&gt;path_analysis -->
<g id="edge13" class="edge">
<title>paths2&#45;&gt;path_analysis</title>
<path fill="none" stroke="black" d="M589.42,-104.75C600.2,-104.75 611.53,-104.75 622.37,-104.75"/>
<polygon fill="black" stroke="black" points="622.37,-108.25 632.37,-104.75 622.37,-101.25 622.37,-108.25"/>
</g>
<!-- pathsn&#45;&gt;path_analysis -->
<g id="edge14" class="edge">
<title>pathsn&#45;&gt;path_analysis</title>
<path fill="none" stroke="black" d="M582.6,-67.24C595.66,-72.37 609.95,-77.98 623.4,-83.26"/>
<polygon fill="black" stroke="black" points="621.98,-86.47 632.57,-86.86 624.54,-79.95 621.98,-86.47"/>
</g>
<!-- prim1 -->
<g id="node13" class="node">
<title>prim1</title>
<polygon fill="none" stroke="black" stroke-dasharray="5,2" points="888.75,-209.5 767.75,-209.5 767.75,-152 888.75,-152 888.75,-209.5"/>
<text text-anchor="middle" x="828.25" y="-192.2" font-family="Times New Roman,serif" font-size="14.00">Primitive #1</text>
<text text-anchor="middle" x="828.25" y="-175.7" font-family="Times New Roman,serif" font-size="14.00">+ Feasible Path</text>
<text text-anchor="middle" x="828.25" y="-159.2" font-family="Times New Roman,serif" font-size="14.00">+ Matched Objects</text>
</g>
<!-- path_analysis&#45;&gt;prim1 -->
<g id="edge15" class="edge">
<title>path_analysis&#45;&gt;prim1</title>
<path fill="none" stroke="black" d="M715.74,-123.15C729.27,-130.14 745.17,-138.35 760.65,-146.34"/>
<polygon fill="black" stroke="black" points="758.89,-149.38 769.38,-150.86 762.11,-143.16 758.89,-149.38"/>
</g>
<!-- prim2 -->
<g id="node14" class="node">
<title>prim2</title>
<polygon fill="none" stroke="black" stroke-dasharray="5,2" points="888.75,-133.5 767.75,-133.5 767.75,-76 888.75,-76 888.75,-133.5"/>
<text text-anchor="middle" x="828.25" y="-116.2" font-family="Times New Roman,serif" font-size="14.00">Primitive #2</text>
<text text-anchor="middle" x="828.25" y="-99.7" font-family="Times New Roman,serif" font-size="14.00">+ Feasible Path</text>
<text text-anchor="middle" x="828.25" y="-83.2" font-family="Times New Roman,serif" font-size="14.00">+ Matched Objects</text>
</g>
<!-- path_analysis&#45;&gt;prim2 -->
<g id="edge16" class="edge">
<title>path_analysis&#45;&gt;prim2</title>
<path fill="none" stroke="black" d="M724.67,-104.75C734.54,-104.75 745.25,-104.75 755.89,-104.75"/>
<polygon fill="black" stroke="black" points="755.86,-108.25 765.86,-104.75 755.86,-101.25 755.86,-108.25"/>
</g>
<!-- primn -->
<g id="node15" class="node">
<title>primn</title>
<polygon fill="none" stroke="black" stroke-dasharray="5,2" points="888.75,-57.5 767.75,-57.5 767.75,0 888.75,0 888.75,-57.5"/>
<text text-anchor="middle" x="828.25" y="-40.2" font-family="Times New Roman,serif" font-size="14.00">Primitive #N</text>
<text text-anchor="middle" x="828.25" y="-23.7" font-family="Times New Roman,serif" font-size="14.00">+ Feasible Path</text>
<text text-anchor="middle" x="828.25" y="-7.2" font-family="Times New Roman,serif" font-size="14.00">+ Matched Objects</text>
</g>
<!-- path_analysis&#45;&gt;primn -->
<g id="edge17" class="edge">
<title>path_analysis&#45;&gt;primn</title>
<path fill="none" stroke="black" d="M715.74,-86.35C729.27,-79.36 745.17,-71.15 760.65,-63.16"/>
<polygon fill="black" stroke="black" points="762.11,-66.34 769.38,-58.64 758.89,-60.12 762.11,-66.34"/>
</g>
<!-- object_db -->
<g id="node16" class="node">
<title>object_db</title>
<polygon fill="gainsboro" stroke="black" points="731.75,-176.75 626.5,-176.75 626.5,-140.75 731.75,-140.75 731.75,-176.75"/>
<text text-anchor="middle" x="679.12" y="-153.7" font-family="Times New Roman,serif" font-size="14.00">Object Database</text>
</g>
<!-- object_db&#45;&gt;path_analysis -->
<g id="edge1" class="edge">
<title>object_db&#45;&gt;path_analysis</title>
<path fill="none" stroke="black" d="M679.12,-140.26C679.12,-138.27 679.12,-136.28 679.12,-134.29"/>
<polygon fill="black" stroke="black" points="682.63,-134.4 679.13,-124.4 675.63,-134.4 682.63,-134.4"/>
</g>
</g>
</svg>
